<?xml version="1.0" encoding="iso-8859-1"?>
<!-- Uploaded to: SVG Repo, www.svgrepo.com, Generator: SVG Repo Mixer Tools -->
<!DOCTYPE svg PUBLIC "-//W3C//DTD SVG 1.1//EN" "http://www.w3.org/Graphics/SVG/1.1/DTD/svg11.dtd">
<svg fill="#000000" version="1.1" id="Capa_1" xmlns="http://www.w3.org/2000/svg" xmlns:xlink="http://www.w3.org/1999/xlink" 
	 width="800px" height="800px" viewBox="0 0 162.05 162.05"
	 xml:space="preserve">
<g>
	<path d="M162.05,98.741c0-5.675-4.621-10.291-10.297-10.291c-2.07,0-3.994,0.634-5.614,1.682
		c-3.117-30.306-27.023-54.508-57.177-58.173c1.485-1.821,2.405-4.12,2.351-6.646c-0.098-5.587-4.71-10.126-10.458-10.126l0,0
		c-5.675,0.101-10.215,4.801-10.121,10.482c0.042,2.387,0.947,4.552,2.363,6.284c-30.153,3.666-54.06,27.867-57.189,58.179
		c-1.617-1.048-3.544-1.682-5.611-1.682C4.615,88.45,0,93.066,0,98.741c0,4.799,3.318,8.805,7.764,9.95
		c-0.207,0.621-0.387,1.242-0.387,1.937c0,3.434,2.795,6.234,6.235,6.234h1.939v17.531h-1.945c-3.44,0-6.235,2.795-6.235,6.235
		c0,3.446,2.795,6.235,6.235,6.235h134.835c3.453,0,6.235-2.789,6.235-6.235c0-3.44-2.782-6.235-6.235-6.235h-1.948v-17.531h1.948
		c3.435,0,6.235-2.801,6.235-6.234c0-0.688-0.188-1.315-0.39-1.937C158.732,107.546,162.05,103.534,162.05,98.741z M77.905,73.018
		H70.11c-1.72,0-3.118,1.397-3.118,3.118c0,1.723,1.397,3.117,3.118,3.117h7.794v25.127H27.182l50.723-49.66V73.018z
		 M77.905,116.851v17.537h-27.28v-17.537H77.905z M84.14,134.399v-17.537h27.279v17.537H84.14z M84.14,104.38V79.253h7.794
		c1.717,0,3.117-1.395,3.117-3.117c0-1.721-1.4-3.118-3.117-3.118H84.14V54.714l50.723,49.666H84.14L84.14,104.38z M140.257,96.891
		v4.037L84.14,45.982v-8.174C115.347,39.448,140.257,65.281,140.257,96.891z M76.964,25.55c-0.04-2.244,1.75-4.104,4.064-4.141
		c2.202,0,4.028,1.796,4.058,3.998c0.04,2.238-1.75,4.089-3.988,4.128l-0.045,1.875c-0.006,0-0.012,0-0.024,0l0,0v-1.875
		C78.821,29.541,77,27.751,76.964,25.55z M77.905,37.808v8.181l-56.118,54.945v-4.043C21.787,65.281,46.698,39.448,77.905,37.808z
		 M6.229,98.741c0-2.24,1.821-4.055,4.059-4.055c2.241,0,4.062,1.814,4.062,4.055c0,2.241-1.821,4.068-4.062,4.068
		C8.05,102.81,6.229,100.982,6.229,98.741z M21.787,116.851H44.39v17.537H21.787V116.851z M140.257,134.399h-22.603v-17.537h22.603
		V134.399z M151.753,102.81c-2.24,0-4.055-1.827-4.055-4.068c0-2.24,1.814-4.055,4.055-4.055c2.241,0,4.062,1.814,4.062,4.055
		C155.815,100.982,153.995,102.81,151.753,102.81z"/>
</g>
</svg>